<svg width="32" height="32" viewBox="0 0 32 32" fill="none" xmlns="http://www.w3.org/2000/svg">
<path fill-rule="evenodd" clip-rule="evenodd" d="M3.96582 6.32258C3.86608 6.32258 3.77043 6.36336 3.6999 6.43596C3.62937 6.50855 3.58975 6.60701 3.58975 6.70968V22.5806H4.49761C4.9887 20.7934 6.5851 19.4839 8.47864 19.4839C10.3722 19.4839 11.9686 20.7934 12.4597 22.5806H16.3761V6.32258H3.96582ZM18.6325 5.54839V5.16129C18.6325 4.51993 18.1274 4 17.5043 4H3.96582C3.26764 4 2.59806 4.28548 2.10438 4.79365C1.61069 5.30181 1.33334 5.99103 1.33334 6.70968V23.7419C1.33334 24.3833 1.83846 24.9032 2.46155 24.9032H4.49761C4.9887 26.6905 6.5851 28 8.47864 28C10.3722 28 11.9686 26.6905 12.4597 24.9032H19.5403C20.0314 26.6905 21.6278 28 23.5214 28C25.4149 28 27.0113 26.6905 27.5024 24.9032H29.5385C30.1616 24.9032 30.6667 24.3833 30.6667 23.7419V14.4516C30.6667 14.2411 30.6111 14.0346 30.5059 13.8541L25.9931 6.1122C25.7892 5.76241 25.4219 5.54839 25.0257 5.54839H18.6325ZM18.6325 7.87097V13.2903H27.5458L24.3869 7.87097H18.6325ZM28.4103 15.6129H18.6325V22.5806H19.5403C20.0314 20.7934 21.6278 19.4839 23.5214 19.4839C25.4149 19.4839 27.0113 20.7934 27.5024 22.5806H28.4103V15.6129ZM8.47864 21.8065C7.44016 21.8065 6.5983 22.673 6.5983 23.7419C6.5983 24.8109 7.44016 25.6774 8.47864 25.6774C9.51713 25.6774 10.359 24.8109 10.359 23.7419C10.359 22.673 9.51713 21.8065 8.47864 21.8065ZM23.5214 21.8065C22.4829 21.8065 21.641 22.673 21.641 23.7419C21.641 24.8109 22.4829 25.6774 23.5214 25.6774C24.5599 25.6774 25.4017 24.8109 25.4017 23.7419C25.4017 22.673 24.5599 21.8065 23.5214 21.8065Z" fill="#181D25"/>
</svg>
