<svg width="32" height="32" viewBox="0 0 32 32" fill="none" xmlns="http://www.w3.org/2000/svg">
<path fill-rule="evenodd" clip-rule="evenodd" d="M30.6667 4.16667C31.311 4.16667 31.8334 4.689 31.8334 5.33333V13.3333C31.8334 13.9777 31.311 14.5 30.6667 14.5H22.6667C22.0224 14.5 21.5 13.9777 21.5 13.3333C21.5 12.689 22.0224 12.1667 22.6667 12.1667H29.5V5.33333C29.5 4.689 30.0224 4.16667 30.6667 4.16667Z" fill="#181D25"/>
<path fill-rule="evenodd" clip-rule="evenodd" d="M0.166691 18.6667C0.166691 18.0223 0.689025 17.5 1.33336 17.5H9.33336C9.97769 17.5 10.5 18.0223 10.5 18.6667C10.5 19.311 9.97769 19.8333 9.33336 19.8333H2.50002V26.6667C2.50002 27.311 1.97769 27.8333 1.33336 27.8333C0.689025 27.8333 0.166691 27.311 0.166691 26.6667V18.6667Z" fill="#181D25"/>
<path fill-rule="evenodd" clip-rule="evenodd" d="M19.0028 5.59642C17.2448 5.08794 15.3867 5.03306 13.6019 5.43691C11.817 5.84076 10.1635 6.69018 8.7957 7.9059C7.42789 9.12162 6.39034 10.664 5.77986 12.3892C5.56491 12.9966 4.89825 13.3148 4.29083 13.0998C3.68341 12.8849 3.36524 12.2182 3.58019 11.6108C4.32216 9.51406 5.58318 7.63945 7.24559 6.16188C8.90801 4.68431 10.9176 3.65194 13.0869 3.16111C15.2563 2.67027 17.5146 2.73697 19.6511 3.35497C21.7817 3.97124 23.722 5.1157 25.2919 6.68201L31.4656 12.4831C31.9352 12.9243 31.9581 13.6627 31.5169 14.1322C31.0757 14.6018 30.3373 14.6248 29.8678 14.1835L23.6811 8.37021C23.6722 8.36186 23.6635 8.35337 23.6549 8.34475C22.3612 7.05042 20.7607 6.10491 19.0028 5.59642ZM0.483145 17.8678C0.924369 17.3982 1.6627 17.3752 2.13226 17.8165L8.31893 23.6298C8.32782 23.6381 8.33657 23.6466 8.34519 23.6552C9.63887 24.9496 11.2393 25.8951 12.9973 26.4036C14.7552 26.9121 16.6133 26.9669 18.3982 26.5631C20.1831 26.1592 21.8365 25.3098 23.2043 24.0941C24.5722 22.8784 25.6097 21.336 26.2202 19.6108C26.4351 19.0034 27.1018 18.6852 27.7092 18.9002C28.3166 19.1151 28.6348 19.7818 28.4199 20.3892C27.6779 22.4859 26.4169 24.3605 24.7545 25.8381C23.092 27.3157 21.0824 28.3481 18.9131 28.8389C16.7438 29.3297 14.4855 29.263 12.3489 28.645C10.2184 28.0288 8.27809 26.8843 6.7081 25.318L0.534451 19.5169C0.0648921 19.0757 0.0419217 18.3373 0.483145 17.8678Z" fill="#181D25"/>
</svg>
